<svg xmlns="http://www.w3.org/2000/svg" viewBox="0 0 64 64" width="64" height="64">
  <!-- Wiki.js — official brand glyph (Simple Icons "wikidotjs"), brand color #1976D2 -->
  <rect width="64" height="64" rx="14" fill="#1976D2"/>
  <g transform="translate(12 12) scale(1.6667)" fill="#ffffff">
    <path d="M17.801 13.557c.148.098.288.202.417.313 1.854 1.6 3.127 4.656 2.582 7.311-1.091-.255-5.747-1.055-7.638-3.383-.91-1.12-1.366-2.081-1.569-2.885a5.65 5.65 0 0 0 .034-.219c.089.198.197.35.313.466.24.24.521.335.766.372.304.046.594-.006.806-.068l.001.001c.05-.015.433-.116.86-.342.325-.173 2.008-.931 3.4-1.911-.297-.078-.589-.165-.879-.262.21-.149.421-.302.631-.461a13.06 13.06 0 0 0-.951-.276c.193-.13.382-.265.567-.405-.31-.067-.622-.122-.935-.165.179-.128.349-.262.519-.396a13.16 13.16 0 0 0-.962-.084c.169-.116.331-.239.491-.363a13.5 13.5 0 0 0-.962.043c.156-.107.305-.221.452-.337a13.43 13.43 0 0 0-.945.176c.143-.094.281-.193.417-.295zM2.776 12.514a4.156 4.156 0 0 0-.516.058c.005.039.011.078.018.117a4.14 4.14 0 0 1 .498-.175zM3.857 0a4.16 4.16 0 0 0-4.157 4.157c0 .553.108 1.08.305 1.563l8.609 20.05c.06.139.197.23.348.23s.288-.091.348-.23l3.07-7.151c-.265-.677-.476-1.493-.604-2.448-.02-.146-.034-.295-.044-.444l-2.77 6.453L4.062 5.06a2.91 2.91 0 0 1-.205-1.072 2.91 2.91 0 0 1 2.91-2.91 2.91 2.91 0 0 1 2.713 1.86l.002-.002.748 1.742h.001l5.165 12.03c.03.07.075.131.131.182.13.117.305.176.485.16a.621.621 0 0 0 .55-.476l1.124-4.485c.013-.05.022-.102.027-.154a.622.622 0 0 0-.62-.683.62.62 0 0 0-.602.471l-.62 2.474-4.137-9.637-.001.001A4.16 4.16 0 0 0 7.957.301 4.146 4.146 0 0 0 3.857 0z"/>
  </g>
</svg>
