<?xml version="1.0" encoding="UTF-8"?>
<svg version="1.1" xmlns="http://www.w3.org/2000/svg" width="2000" height="2000">
<path d="M0 0 C1.93159137 -0.00165141 3.86318241 -0.00373849 5.79477289 -0.0062201 C11.10677945 -0.01177373 16.41876984 -0.01111673 21.73077837 -0.00944251 C27.50852848 -0.00871048 33.28627407 -0.01373656 39.06402224 -0.01801753 C49.85725396 -0.02515171 60.65048119 -0.02774538 71.4437151 -0.02824482 C81.64410331 -0.02876275 91.84448812 -0.03162792 102.04487514 -0.03656006 C103.07496752 -0.03705526 103.07496752 -0.03705526 104.12586985 -0.03756046 C106.92290873 -0.0389105 109.7199476 -0.04027317 112.51698646 -0.04165257 C145.61314909 -0.05794535 178.70931101 -0.06433999 211.80547697 -0.06910044 C228.28910694 -0.07148473 244.77273651 -0.07518842 261.25636617 -0.07913754 C314.14548609 -0.09180136 367.03460599 -0.10258515 419.9237274 -0.10597799 C422.45095815 -0.10614023 424.97818891 -0.10630579 427.50541966 -0.10647238 C432.57371383 -0.10680617 437.642008 -0.10713665 442.71030217 -0.10746694 C448.64388355 -0.10785383 454.57746492 -0.10824344 460.5110463 -0.108638 C462.20927715 -0.10875042 463.907508 -0.10886184 465.60573885 -0.10897225 C520.13855686 -0.11252113 574.67136169 -0.12759763 629.20417467 -0.15091 C668.39496808 -0.16765699 707.58575899 -0.18312889 746.77655602 -0.18764496 C747.98611553 -0.18778519 747.98611553 -0.18778519 749.22011058 -0.18792825 C766.92410268 -0.18994753 784.62809474 -0.19110338 802.33208695 -0.19145683 C808.66736917 -0.191593 815.00265138 -0.19180199 821.3379336 -0.19205009 C822.91394518 -0.19211165 824.48995676 -0.19216997 826.06596835 -0.19222504 C851.15432971 -0.19314395 876.2426773 -0.20310132 901.33103414 -0.21768252 C926.60968514 -0.23231551 951.88831926 -0.23732982 977.16697374 -0.22926298 C980.66516375 -0.22814771 984.16335379 -0.22713702 987.66154385 -0.22618866 C988.69009106 -0.22590371 988.69009106 -0.22590371 989.73941701 -0.225613 C1001.22518402 -0.22272088 1012.71091292 -0.23167654 1024.19667307 -0.24382807 C1034.20461323 -0.25358611 1044.21251388 -0.2523919 1054.22045368 -0.24239184 C1059.91832643 -0.23700586 1065.61609085 -0.23627032 1071.31395457 -0.24890056 C1076.5097398 -0.26032135 1081.70532955 -0.25762618 1086.90110833 -0.24423349 C1088.75724602 -0.24182178 1090.6133992 -0.24430339 1092.46951978 -0.25262997 C1140.94578819 -0.45558866 1184.33715685 16.5096274 1220.07591534 49.13142776 C1221.30374737 50.25097855 1221.30374737 50.25097855 1222.55638409 51.39314651 C1229.13725115 57.69447232 1234.61582803 64.8650775 1240.07591534 72.13142776 C1240.71529034 72.9757637 1241.35466534 73.82009964 1242.01341534 74.69002151 C1263.87796381 104.70316329 1274.2644264 140.47535015 1274.19896317 177.32523823 C1274.1997034 178.98317138 1274.20088263 180.64110438 1274.20245966 182.29903695 C1274.20552543 186.8603985 1274.20235625 191.42173771 1274.19818153 195.9830976 C1274.19474511 200.94332835 1274.19711855 205.90355686 1274.19875902 210.86378807 C1274.20083272 219.55883626 1274.19918904 228.25387762 1274.19512081 236.94892502 C1274.18908829 249.87816438 1274.18878478 262.80739943 1274.1896628 275.73663994 C1274.19097709 297.48518117 1274.18764107 319.2337194 1274.18164539 340.98225975 C1274.17572224 362.5192205 1274.17187016 384.05618 1274.17079258 405.59314156 C1274.17075817 406.26208331 1274.17072376 406.93102506 1274.1706883 407.62023777 C1274.1703751 413.73002174 1274.17008741 419.83980572 1274.16983033 425.9495897 C1274.16919094 441.13759009 1274.16823163 456.32559045 1274.16705513 471.51359081 C1274.16700181 472.20520638 1274.1669485 472.89682195 1274.16689356 473.60939557 C1274.16427226 507.24963399 1274.15796479 540.88987158 1274.15135479 574.53010941 C1274.14906312 586.20351028 1274.14678776 597.87691115 1274.14457989 609.55031204 C1274.14444294 610.27430099 1274.14430599 610.99828993 1274.14416489 611.74421793 C1274.13782039 645.40290405 1274.13409508 679.0615903 1274.13104509 712.72027686 C1274.13084703 714.90552058 1274.13064784 717.0907643 1274.13044841 719.27600801 C1274.12912863 733.75777576 1274.12785398 748.23954351 1274.12660955 762.72131126 C1274.12413307 791.53624492 1274.12139139 820.35117855 1274.11846751 849.16611217 C1274.11832827 850.53834335 1274.11818921 851.91057454 1274.11805034 853.28280573 C1274.10908745 941.82799565 1274.09384186 1030.37318463 1274.07591534 1127.13142776 C1272.84642162 1126.85654526 1271.61692791 1126.58166275 1270.35017681 1126.29845047 C1268.71758613 1125.93430848 1267.0849868 1125.57020531 1265.45238018 1125.2061348 C1264.24031147 1124.93498604 1264.24031147 1124.93498604 1263.00375652 1124.65835953 C1222.97730623 1115.74028588 1182.90326516 1115.08400368 1142.70091534 1123.19466019 C1141.7740794 1123.38087685 1140.84724346 1123.56709351 1139.89232159 1123.75895309 C1137.62001872 1124.21561899 1135.34789015 1124.67313307 1133.07591534 1125.13142776 C1133.07551515 1124.34377403 1133.07511497 1123.5561203 1133.07470266 1122.74459827 C1133.03103017 1036.9953264 1132.98365789 951.24605687 1132.91693401 865.49679947 C1132.91544066 863.57561401 1132.91544066 863.57561401 1132.91391715 861.61561672 C1132.89278633 834.4588136 1132.87105742 807.30201099 1132.84860996 780.14520894 C1132.8373342 766.50306713 1132.82617657 752.86092523 1132.81513065 739.21878324 C1132.81346375 737.16094172 1132.81179347 735.1031002 1132.81012306 733.04525868 C1132.78443646 701.36445001 1132.76128055 669.68364198 1132.745471 638.00282669 C1132.74513114 637.32187055 1132.74479127 636.64091442 1132.74444111 635.93932325 C1132.73897705 624.96057741 1132.73372574 613.98183147 1132.72850267 603.00308552 C1132.70664662 557.07214638 1132.67525096 511.14122547 1132.63092421 465.21030126 C1132.62476192 458.82027181 1132.61871145 452.43024225 1132.61272907 446.04021263 C1132.61154819 444.78255704 1132.61036731 443.52490145 1132.60915064 442.22913508 C1132.59042556 421.98033169 1132.5820137 401.7315365 1132.57745409 381.48272551 C1132.57265077 361.12828044 1132.55699292 340.77386668 1132.53024968 320.41943841 C1132.51468902 308.32495589 1132.5074565 296.2305351 1132.51214605 284.13604312 C1132.51445907 276.05504121 1132.50591645 267.97409763 1132.48859123 259.8931141 C1132.4790316 255.28989026 1132.47414992 250.68679531 1132.48251971 246.08356618 C1132.49005306 241.88907666 1132.48363743 237.69484009 1132.46647466 233.50038103 C1132.4627079 231.99884816 1132.4638561 230.49729201 1132.47075933 228.99577028 C1132.53234823 214.44463819 1130.46279498 201.34314451 1124.07591534 188.13142776 C1123.64536846 187.21877151 1123.21482159 186.30611526 1122.77122784 185.36580276 C1112.50384129 165.063061 1094.39091178 152.20863452 1073.23216534 145.13924026 C1061.45168313 141.99139983 1049.55094448 141.84298739 1037.46263409 141.87974548 C1035.71101608 141.87765539 1033.95939893 141.87469006 1032.2077837 141.87093675 C1027.4095005 141.86317779 1022.61129823 141.86779321 1017.81301641 141.87449266 C1012.58707665 141.87957846 1007.36114903 141.87304131 1002.13521099 141.86800599 C992.98097782 141.86078903 983.82676824 141.86099782 974.67253399 141.86610031 C961.05982741 141.87366728 947.44714072 141.86979674 933.83443427 141.8636837 C910.93087452 141.85376244 888.02732701 141.85339289 865.1237669 141.85883713 C864.07831721 141.85908551 864.07831721 141.85908551 863.01174733 141.85933892 C862.31366075 141.85950478 861.61557417 141.85967064 860.89633346 141.85984152 C839.61992994 141.86488993 818.34353026 141.86618972 797.06712627 141.86379623 C795.64179333 141.86364128 794.21646039 141.86348696 792.79112744 141.86333329 C787.06315696 141.86271235 781.33518648 141.86207501 775.607216 141.86141377 C759.59564316 141.85957984 743.5840703 141.85843857 727.57249737 141.85784149 C726.84339731 141.8578142 726.11429724 141.85778691 725.36310324 141.85775879 C702.1343981 141.85694036 678.90569428 141.85919336 655.67698956 141.86354065 C654.92370169 141.86368115 654.17041383 141.86382165 653.39429906 141.8639664 C641.1617613 141.86625624 628.92922358 141.86869519 616.69668585 141.87114675 C568.18246698 141.88085925 519.66825916 141.88040845 471.15404034 141.87068558 C458.92764061 141.86824315 446.70124088 141.86582103 434.47484112 141.86354065 C433.34557116 141.8633293 433.34557116 141.8633293 432.19348767 141.86311369 C408.98876937 141.85880066 385.78405199 141.8569729 362.57933331 141.85784149 C361.85077014 141.85786866 361.12220698 141.85789583 360.37156615 141.85792382 C344.3777159 141.85854881 328.38386574 141.85981614 312.39001559 141.8616625 C306.66719757 141.86232077 300.94437955 141.86294693 295.22156152 141.86356392 C293.79790245 141.8637187 292.37424339 141.86387616 290.95058432 141.86403631 C269.68041571 141.86642251 248.41025142 141.86439252 227.14008334 141.85933892 C226.44311689 141.85917333 225.74615043 141.85900774 225.02806377 141.85883713 C223.98454674 141.85858908 223.98454674 141.85858908 222.91994855 141.85833602 C199.44614862 141.85281725 175.97236207 141.85485727 152.49856281 141.86539862 C138.96631187 141.87127499 125.43408725 141.87164902 111.90183699 141.86410627 C102.86424357 141.85962416 93.82667127 141.86240786 84.78908098 141.8711158 C79.63893546 141.87587596 74.48884227 141.87749457 69.33869839 141.87030384 C64.64932504 141.86382321 59.96005023 141.86661691 55.270684 141.87666516 C53.58889087 141.87867194 51.90708949 141.87736725 50.22530293 141.87225328 C24.4424238 141.79944454 1.51094601 146.99026452 -17.31080341 165.48689651 C-18.17318623 166.35959183 -19.03556904 167.23228714 -19.92408466 168.13142776 C-20.59052998 168.78756058 -21.25697529 169.44369339 -21.94361591 170.11970901 C-38.93169427 188.02813473 -42.24596902 212.01410366 -42.17856026 235.64451599 C-42.18095375 237.39747163 -42.18422128 239.15042626 -42.18827686 240.90337884 C-42.19687059 245.71005659 -42.19308134 250.51665593 -42.18722113 255.32333482 C-42.18304268 260.55668351 -42.1904574 265.79001811 -42.19637364 271.02336335 C-42.20513194 280.19224187 -42.20644906 289.36109805 -42.20287037 298.52997971 C-42.19756269 312.16464313 -42.20365934 325.79928494 -42.2119533 339.43394601 C-42.22677811 364.49393012 -42.22904285 389.5539009 -42.22663292 414.61388773 C-42.22629446 418.16300674 -42.22597237 421.71212576 -42.22566724 425.26124477 C-42.22557567 426.31870361 -42.22557567 426.31870361 -42.22548226 427.39752525 C-42.22420963 443.03006318 -42.22681308 458.66259974 -42.23019331 474.29513725 C-42.23096405 477.8660537 -42.23170878 481.43697015 -42.23245832 485.0078866 C-42.23276001 486.44107438 -42.23306189 487.87426216 -42.23336396 489.30744994 C-42.23351364 490.01786289 -42.23366332 490.72827583 -42.23381754 491.46021644 C-42.23412107 492.89720331 -42.23442575 494.33419017 -42.23473158 495.77117704 C-42.24340333 536.53914766 -42.24804944 577.30711707 -42.24378395 618.0750885 C-42.24370589 618.82980412 -42.24362784 619.58451974 -42.24354741 620.36210554 C-42.24267464 628.77773152 -42.24174537 637.19335751 -42.24079678 645.60898349 C-42.24071127 646.36877114 -42.24062576 647.12855879 -42.24053766 647.91137031 C-42.24001887 652.52032445 -42.24001887 652.52032445 -42.23949544 657.1292786 C-42.23395994 705.72538007 -42.24150153 754.32146254 -42.2602663 802.91756058 C-42.26498864 815.16237128 -42.2696692 827.40718199 -42.27410316 839.6519928 C-42.27437649 840.40598564 -42.27464981 841.15997848 -42.27493141 841.9368196 C-42.28330454 865.18055381 -42.28798254 888.42428644 -42.28881073 911.66802216 C-42.2888371 912.3979237 -42.28886346 913.12782524 -42.28889063 913.87984502 C-42.28943145 929.90394605 -42.28905888 945.92804696 -42.28785091 961.95214795 C-42.2874253 967.68601226 -42.28706017 973.41987657 -42.28672147 979.15374088 C-42.28663617 980.58013905 -42.28654724 982.00653721 -42.28645465 983.43293537 C-42.28500686 1006.14597873 -42.29212579 1028.85900916 -42.30345861 1051.57204942 C-42.31511628 1075.0884096 -42.31566314 1098.60474046 -42.30361519 1122.12110254 C-42.29698211 1135.67494826 -42.29862806 1149.22873325 -42.3122037 1162.78257412 C-42.32044272 1171.83842636 -42.31775774 1180.89423308 -42.30622844 1189.95008162 C-42.29996667 1195.10823179 -42.29838514 1200.26626338 -42.31009177 1205.42440674 C-42.32066072 1210.12458756 -42.31721738 1214.82454978 -42.30298724 1219.52471904 C-42.30027729 1221.20704768 -42.30249646 1222.88939411 -42.31049439 1224.57170592 C-42.42682396 1250.85202574 -35.97482685 1274.90251791 -16.92408466 1294.13142776 C-2.06107511 1307.78718887 17.47136752 1316.242461 37.76742738 1316.26203829 C39.74333819 1316.26755936 39.74333819 1316.26755936 41.75916639 1316.27319196 C43.21205187 1316.27224644 44.66493729 1316.2712101 46.11782265 1316.27009296 C47.67451046 1316.27254162 49.23119763 1316.27542585 50.78788391 1316.27870575 C55.0774523 1316.28647673 59.3670042 1316.28804763 63.65657877 1316.28863316 C68.31871335 1316.29036162 72.98083921 1316.29784665 77.64296871 1316.30460972 C85.8177208 1316.31567166 93.99246978 1316.32304043 102.16722775 1316.32800865 C114.32283764 1316.33541289 126.47843676 1316.34849564 138.63404032 1316.36275441 C159.08066512 1316.38657725 179.52729183 1316.40577625 199.97392368 1316.42235374 C220.22305787 1316.43878617 240.47218849 1316.45726531 260.72131824 1316.47848701 C261.97963994 1316.47980462 263.23796164 1316.48112223 264.5344143 1316.48247976 C270.9246124 1316.48918171 277.31481047 1316.49592031 283.70500851 1316.50267302 C328.98448386 1316.55045523 374.26396232 1316.59363553 419.54344463 1316.63411331 C430.5192544 1316.64392722 441.49506414 1316.65375729 452.47087383 1316.66365433 C453.15159336 1316.66426813 453.83231288 1316.66488192 454.53366027 1316.66551432 C486.17781695 1316.69406969 517.82197092 1316.72522311 549.46612447 1316.75704684 C551.52045339 1316.75911278 553.57478231 1316.7611776 555.62911123 1316.76324219 C569.24324106 1316.77692612 582.85737085 1316.79065483 596.4715006 1316.80441353 C624.20585462 1316.83244199 651.94020893 1316.86018615 679.67456341 1316.88776016 C681.58739778 1316.88966246 681.58739778 1316.88966246 683.53887526 1316.89160319 C768.71788413 1316.97628062 853.89689929 1317.05436679 939.07591534 1317.13142776 C938.76364603 1318.85445136 938.451089 1320.57742281 938.13841534 1322.30037308 C937.9643919 1323.25985855 937.79036846 1324.21934402 937.61107159 1325.20790482 C937.10913101 1327.94997274 936.59507504 1330.68945064 936.07591534 1333.42830276 C928.48111786 1374.33800015 930.98791153 1412.74172415 939.11680889 1453.3412056 C939.29652988 1454.23904392 939.47625088 1455.13688225 939.66141796 1456.0619278 C939.86659416 1457.08633028 939.86659416 1457.08633028 940.07591534 1458.13142776 C850.59403503 1458.18170163 761.11215275 1458.22916524 665.4944334 1458.25845718 C664.12593228 1458.25887554 662.75743116 1458.25929389 661.38893003 1458.25971225 C632.6616339 1458.26848093 603.93433762 1458.27663101 575.20704112 1458.2840668 C560.77565617 1458.28780289 546.34427126 1458.2916578 531.91288637 1458.29562509 C529.73601155 1458.29622284 527.55913672 1458.29681719 525.38226189 1458.29741141 C491.8746467 1458.30658775 458.36703477 1458.31830736 424.85942364 1458.33742142 C424.13937231 1458.33783211 423.41932099 1458.33824281 422.67744993 1458.33866595 C411.06862051 1458.34530279 399.45979122 1458.35215372 387.85096194 1458.35903309 C354.40039013 1458.37885254 320.94982084 1458.39708019 287.49924374 1458.40484715 C286.81087033 1458.40500775 286.12249693 1458.40516836 285.41326372 1458.40533383 C270.299162 1458.40883171 255.18506024 1458.411516 240.07095824 1458.41343071 C233.98888307 1458.41421554 227.90680792 1458.41511741 221.82473278 1458.41605949 C221.15909014 1458.41615978 220.49344749 1458.41626006 219.80763386 1458.41636338 C197.72395786 1458.41975032 175.64030223 1458.4335691 153.55663403 1458.45192387 C132.02589683 1458.46959751 110.49517815 1458.47632871 88.96443394 1458.4719319 C76.17557479 1458.46965168 63.3867835 1458.47571989 50.59793661 1458.49382039 C42.04771886 1458.505094 33.4975454 1458.5054019 24.94732456 1458.49692321 C20.08019418 1458.49240687 15.21319188 1458.49253489 10.34607539 1458.50607731 C-27.43711461 1458.60495036 -27.43711461 1458.60495036 -42.92408466 1455.13142776 C-43.75489002 1454.9451977 -44.58569537 1454.75896763 -45.44167665 1454.56709423 C-77.71739438 1447.21759969 -105.66953144 1431.4224109 -129.92408466 1409.13142776 C-131.18672138 1407.9770723 -131.18672138 1407.9770723 -132.47486591 1406.79939651 C-164.54398615 1376.09734357 -183.0670172 1330.68103712 -184.26501747 1286.6245065 C-184.3262178 1282.36192776 -184.31935442 1278.10106897 -184.30160809 1273.83819962 C-184.30474769 1271.89208028 -184.30919893 1269.94596271 -184.31482118 1267.99984896 C-184.32639611 1262.69874207 -184.31957064 1257.39780129 -184.30948733 1252.0966974 C-184.3018272 1246.31168979 -184.31167665 1240.52670622 -184.31921732 1234.74170208 C-184.33002009 1224.61804387 -184.32974361 1214.4944337 -184.32207584 1204.37077332 C-184.31387812 1193.51780019 -184.31210078 1182.66485674 -184.31828785 1171.81188202 C-184.31867537 1171.12422821 -184.31906289 1170.4365744 -184.31946215 1169.7280826 C-184.32106211 1166.92698539 -184.32270826 1164.12588822 -184.32441297 1161.32479107 C-184.34024903 1135.28532515 -184.34137124 1109.2458781 -184.33297062 1083.20640945 C-184.33259804 1082.05095493 -184.33259804 1082.05095493 -184.33221793 1080.87215789 C-184.33196914 1080.1006103 -184.33172036 1079.32906271 -184.33146403 1078.53413489 C-184.32388582 1055.00112372 -184.32194432 1031.46812033 -184.32553196 1007.93510818 C-184.3257644 1006.35746491 -184.32599587 1004.77982163 -184.32622637 1003.20217835 C-184.32715782 996.8618241 -184.32811383 990.52146986 -184.32910566 984.18111562 C-184.33185629 966.45867641 -184.33356838 948.73623717 -184.33446407 931.01379776 C-184.33450501 930.20684991 -184.33454595 929.39990205 -184.33458813 928.56850123 C-184.33581543 902.86676336 -184.33243802 877.16502819 -184.32591534 851.46329117 C-184.32570459 850.63003282 -184.32549384 849.79677447 -184.32527671 848.93826587 C-184.32184212 835.40783563 -184.31818361 821.87740546 -184.31450619 808.34697529 C-184.29993788 754.68820454 -184.30061407 701.02945624 -184.31519794 647.37068558 C-184.3188617 633.84697853 -184.32249493 620.32327147 -184.32591534 606.79956436 C-184.32612668 605.9667901 -184.32633803 605.13401584 -184.32655577 604.27600599 C-184.33302712 578.60035623 -184.33576663 552.92470833 -184.33446407 527.24905777 C-184.33442332 526.44270714 -184.33438257 525.63635651 -184.33434058 524.80557102 C-184.33340303 507.1026157 -184.33150188 489.39966059 -184.32873256 471.69670547 C-184.3277452 465.36211778 -184.32680595 459.02753008 -184.32588043 452.69294239 C-184.32564827 451.11715192 -184.32541207 449.54136145 -184.32517184 447.96557098 C-184.32159527 424.44060991 -184.32463221 400.91565762 -184.33221793 377.39069764 C-184.33246632 376.62039462 -184.33271471 375.85009161 -184.33297062 375.05644608 C-184.33334269 373.90313569 -184.33334269 373.90313569 -184.33372228 372.7265261 C-184.34200772 346.76011001 -184.33893126 320.79371651 -184.32312839 294.82730365 C-184.32147143 292.03519363 -184.3198613 289.24308358 -184.31828785 286.45097351 C-184.31789723 285.76577121 -184.31750661 285.08056891 -184.31710415 284.3746029 C-184.31084416 272.89739396 -184.31637395 261.42021941 -184.32506691 249.94301284 C-184.33180494 239.94282685 -184.3275877 229.9426837 -184.3145526 219.94250404 C-184.30743297 214.24925839 -184.30494134 208.55611899 -184.31577055 202.86287677 C-184.32554426 197.67141986 -184.32122647 192.48016229 -184.30622857 187.28871958 C-184.30323671 185.43417736 -184.30512598 183.57961818 -184.31284638 181.72508962 C-184.43721367 149.53565275 -177.25239904 119.43148742 -161.92408466 91.13142776 C-161.41603291 90.19000931 -161.41603291 90.19000931 -160.89771748 89.2295723 C-155.05628493 78.57575349 -147.84952765 69.311813 -139.92408466 60.13142776 C-139.43617451 59.56230667 -138.94826435 58.99318558 -138.44556904 58.40681839 C-132.19880275 51.1750848 -125.48241049 44.9766715 -117.92408466 39.13142776 C-116.98564716 38.35412308 -116.04720966 37.57681839 -115.08033466 36.77595901 C-82.03527374 9.99072277 -41.71964509 -0.04354952 0 0 Z " fill="#3B41D4" transform="translate(407.9240846633911,221.86857223510742)"/>
<path d="M0 0 C1.41988116 0.00028247 2.83976247 0.00012298 4.25964355 -0.0004425 C8.09377124 -0.00072816 11.92786732 0.00513104 15.76198769 0.01213145 C19.77650414 0.01840364 23.7910214 0.01897184 27.80554199 0.02015686 C35.39846591 0.02325881 42.99137534 0.03145683 50.58429289 0.04150635 C59.23243762 0.05270284 67.88058307 0.05818684 76.52873325 0.06320179 C94.31017932 0.07364043 112.09161193 0.09121779 129.87304688 0.11352539 C129.92706247 97.67818398 129.95445844 195.24284103 129.87304688 369.11352539 C129.87240986 370.03113372 129.87177284 370.94874205 129.87111652 371.89415669 C129.84327406 411.77383446 129.80068756 451.653411 129.68753529 491.53294945 C129.68176717 493.57083705 129.67599959 495.60872465 129.67023844 497.64661227 C129.66643457 498.99114604 129.66261653 500.33567978 129.65878414 501.68021347 C129.63074812 511.59611165 129.6135342 521.51198708 129.60232544 531.42791748 C129.58961812 542.54584467 129.56331683 553.66363172 129.51853412 564.78147805 C129.49649752 570.3221892 129.48009177 575.86273288 129.48114586 581.40349197 C129.48061847 610.05583906 128.41524039 636.77394588 118.87304688 664.11352539 C118.6492334 664.76401855 118.42541992 665.41451172 118.19482422 666.0847168 C109.39967827 691.11705528 94.80417473 712.66781107 75.87304688 731.11352539 C75.36128906 731.67040039 74.84953125 732.22727539 74.32226562 732.80102539 C60.59259233 747.38329082 42.54502596 757.38759744 23.87304688 764.11352539 C22.83921875 764.49379883 21.80539062 764.87407227 20.74023438 765.26586914 C-8.40003867 775.14076985 -40.62459299 772.8217 -68.19873047 759.42211914 C-85.51707839 750.55613537 -99.77582285 737.89695834 -112.48632812 723.26977539 C-116.15394827 719.04949332 -119.96636032 714.98146094 -123.81445312 710.92602539 C-128.6543777 705.80500817 -133.48167257 700.67453082 -138.25195312 695.48852539 C-142.52384624 690.84484759 -146.81798044 686.22282397 -151.12695312 681.61352539 C-155.96660697 676.43582205 -160.78601183 671.24032262 -165.58789062 666.02758789 C-169.41746769 661.87381383 -173.26904281 657.74098402 -177.12695312 653.61352539 C-181.96656109 648.43577888 -186.78601152 643.24032296 -191.58789062 638.02758789 C-195.41746769 633.87381383 -199.26904281 629.74098402 -203.12695312 625.61352539 C-207.96656109 620.43577888 -212.78601152 615.24032296 -217.58789062 610.02758789 C-221.41746769 605.87381383 -225.26904281 601.74098402 -229.12695312 597.61352539 C-233.96656109 592.43577888 -238.78601152 587.24032296 -243.58789062 582.02758789 C-247.41746769 577.87381383 -251.26904281 573.74098402 -255.12695312 569.61352539 C-259.96656109 564.43577888 -264.78601152 559.24032296 -269.58789062 554.02758789 C-273.41746769 549.87381383 -277.26904281 545.74098402 -281.12695312 541.61352539 C-285.96585359 536.43653581 -290.78482363 531.24204322 -295.58569336 526.02978516 C-299.43575362 521.8534162 -303.30984051 517.69993867 -307.18945312 513.55102539 C-312.25596445 508.13206111 -317.28186378 502.67900493 -322.28710938 497.20336914 C-326.11726584 493.02514024 -329.9939167 488.89028669 -333.86523438 484.75024414 C-337.63397233 480.71818825 -341.38783231 476.67305288 -345.12695312 472.61352539 C-349.44179121 467.92944159 -353.77821344 463.26614862 -358.12695312 458.61352539 C-362.98540494 453.415201 -367.82687264 448.20193969 -372.6472168 442.96826172 C-375.26295231 440.12920511 -377.88518277 437.29652537 -380.51757812 434.47290039 C-385.54770075 429.07663861 -390.56830295 423.68769321 -395.38867188 418.10180664 C-397.59951802 415.57299611 -399.86291756 413.09479975 -402.12695312 410.61352539 C-405.57405128 406.83367568 -408.97738794 403.0239767 -412.33007812 399.16040039 C-415.24613695 395.83862903 -418.23039083 392.57843104 -421.20898438 389.31274414 C-423.12695312 387.11352539 -423.12695312 387.11352539 -425.12695312 384.11352539 C-425.12784876 385.07450301 -425.12784876 385.07450301 -425.12876248 386.05489433 C-425.16471088 424.08402316 -425.22143321 462.11306884 -425.30487408 500.14212417 C-425.3148907 504.71543598 -425.32473497 509.28874814 -425.33447266 513.86206055 C-425.33738472 515.22767035 -425.33738472 515.22767035 -425.3403556 516.62086822 C-425.37131775 531.33298517 -425.38834006 546.04508654 -425.40014735 560.75722991 C-425.41258896 575.87014689 -425.440158 590.98298258 -425.48156619 606.0958482 C-425.50661569 615.41001036 -425.52007668 624.72403757 -425.5183827 634.03823389 C-425.51835278 640.43837154 -425.53310891 646.83837243 -425.55911741 653.23845671 C-425.57366439 656.92270702 -425.58205259 660.60667695 -425.57275581 664.29095078 C-425.50052207 696.6869292 -431.40182917 725.24902408 -455.12695312 749.11352539 C-477.40080809 770.01334385 -503.53447131 771.72990268 -532.53422666 771.51910114 C-536.60872263 771.49381537 -540.6832349 771.49172437 -544.75779724 771.48699951 C-552.44614872 771.47464852 -560.13426821 771.44193561 -567.82251829 771.40160155 C-576.5869208 771.35663607 -585.35133536 771.334835 -594.11582482 771.31481981 C-612.11966497 771.27319435 -630.12329029 771.20299847 -648.12695312 771.11352539 C-648.18551196 677.62331912 -648.11137963 584.13303842 -647.89459675 439.15036067 C-647.88447703 432.88865205 -647.8744705 426.62694324 -647.86450195 420.36523438 C-647.86339947 419.6745451 -647.86229698 418.98385583 -647.86116109 418.27223658 C-647.82503124 395.59769195 -647.79924899 372.92314926 -647.77856344 350.24858571 C-647.75695062 326.61252458 -647.72563562 302.97649604 -647.68196199 279.34046488 C-647.65410468 264.25697219 -647.63440168 249.17352043 -647.62760708 234.09000265 C-647.62234344 224.28606388 -647.60609432 214.48218119 -647.58128747 204.67827255 C-647.56734999 199.04637932 -647.55807367 193.41458632 -647.56194496 187.78267479 C-647.56538855 182.61727988 -647.55480259 177.45209837 -647.53371761 172.28674709 C-647.52851084 170.43503438 -647.52814911 168.58329913 -647.5335575 166.731587 C-647.64295176 124.98731551 -635.55973112 84.16265094 -608.12695312 52.11352539 C-607.42957031 51.29368164 -606.7321875 50.47383789 -606.01367188 49.62915039 C-587.12418069 28.02198818 -562.20506205 12.51707948 -534.12695312 6.11352539 C-532.93005859 5.83750488 -532.93005859 5.83750488 -531.70898438 5.5559082 C-523.85572541 3.92899599 -516.129107 3.72771233 -508.12695312 3.73852539 C-507.44575409 3.73906921 -506.76455505 3.73961304 -506.06271362 3.74017334 C-494.69913404 3.78176587 -484.02442459 4.73963074 -473.12695312 8.11352539 C-472.45245117 8.31719727 -471.77794922 8.52086914 -471.08300781 8.73071289 C-445.76318463 16.63781912 -425.16533775 32.83040962 -408.15820312 52.79711914 C-405.26400305 56.09762038 -402.2549174 59.28709955 -399.25195312 62.48852539 C-394.55503538 67.49980135 -389.90467539 72.5441687 -385.32617188 77.66430664 C-381.4309823 82.00228864 -377.47851583 86.28805113 -373.53417969 90.58129883 C-371.22986761 93.09029651 -368.92854221 95.60203007 -366.62695312 98.11352539 C-365.7103012 99.11353891 -364.79363453 100.1135389 -363.87695312 101.11352539 C-358.37695312 107.11352539 -352.87695312 113.11352539 -347.37695312 119.11352539 C-346.69608643 119.85626709 -346.69608643 119.85626709 -346.00146484 120.61401367 C-345.0863668 121.612332 -344.17132757 122.61070426 -343.25634766 123.60913086 C-340.9411646 126.13530959 -338.62491302 128.66049371 -336.30664062 131.18383789 C-332.07928562 135.78702304 -327.86169229 140.39766315 -323.68945312 145.05102539 C-319.23051397 150.01864922 -314.70256981 154.92035791 -310.16992188 159.82055664 C-305.92623881 164.40923268 -301.70654771 169.01984142 -297.48583984 173.62963867 C-295.65915895 175.62435058 -293.83145608 177.61812446 -292.00366211 179.61181641 C-291.08772091 180.61092163 -290.17186767 181.6101075 -289.25610352 182.609375 C-286.94101684 185.13548613 -284.62483524 187.66057838 -282.30664062 190.18383789 C-278.07928562 194.78702304 -273.86169229 199.39766315 -269.68945312 204.05102539 C-265.23051397 209.01864922 -260.70256981 213.92035791 -256.16992188 218.82055664 C-251.92623881 223.40923268 -247.70654771 228.01984142 -243.48583984 232.62963867 C-241.20052817 235.12516946 -238.91365732 237.61927066 -236.62695312 240.11352539 C-235.71027909 241.11351864 -234.79361242 242.11351863 -233.87695312 243.11352539 C-233.42320312 243.60852539 -232.96945312 244.10352539 -232.50195312 244.61352539 C-231.12695313 246.11352539 -229.75195312 247.61352539 -228.37695312 249.11352539 C-227.92304199 249.60868652 -227.46913086 250.10384766 -227.00146484 250.61401367 C-226.0863668 251.612332 -225.17132757 252.61070426 -224.25634766 253.60913086 C-221.9411646 256.13530959 -219.62491302 258.66049371 -217.30664062 261.18383789 C-213.07928562 265.78702304 -208.86169229 270.39766315 -204.68945312 275.05102539 C-200.23051397 280.01864922 -195.70256981 284.92035791 -191.16992188 289.82055664 C-186.92623881 294.40923268 -182.70654771 299.01984142 -178.48583984 303.62963867 C-176.65915895 305.62435058 -174.83145608 307.61812446 -173.00366211 309.61181641 C-172.08772091 310.61092163 -171.17186767 311.6101075 -170.25610352 312.609375 C-167.94101684 315.13548613 -165.62483524 317.66057838 -163.30664062 320.18383789 C-159.07928562 324.78702304 -154.86169229 329.39766315 -150.68945312 334.05102539 C-146.23051397 339.01864922 -141.70256981 343.92035791 -137.16992188 348.82055664 C-132.92623881 353.40923268 -128.70654771 358.01984142 -124.48583984 362.62963867 C-122.6590813 364.62443538 -120.83130429 366.61829727 -119.00341797 368.61206055 C-118.0882611 369.61032496 -117.17322138 370.60869678 -116.25830078 371.60717773 C-113.93145639 374.14638297 -111.60295056 376.68403142 -109.27148438 379.21899414 C-108.79710937 379.73526367 -108.32273437 380.2515332 -107.83398438 380.78344727 C-106.53237797 382.1999013 -105.23008259 383.61572213 -103.92773438 385.03149414 C-101.57839394 387.60182405 -99.26407426 390.20236 -96.9519043 392.80615234 C-96.23467697 393.61365433 -95.51744965 394.42115631 -94.77848816 395.25312805 C-94.2334816 395.86705917 -93.68847504 396.4809903 -93.12695312 397.11352539 C-93.12597632 396.4597981 -93.12499951 395.80607082 -93.1239931 395.13253361 C-93.06564443 356.33523635 -92.99178989 317.53799606 -92.89796684 278.74076766 C-92.8866995 274.07603938 -92.87556091 269.41131081 -92.86450195 264.74658203 C-92.86229827 263.8179695 -92.86009459 262.88935697 -92.85782412 261.93260466 C-92.82251005 246.92235699 -92.79761273 231.91210936 -92.77660611 216.90183563 C-92.75479703 201.48496126 -92.72169839 186.06814052 -92.67825156 170.65131181 C-92.65182259 161.14830652 -92.63406286 151.64536797 -92.62760708 142.14232778 C-92.62232629 135.61420025 -92.60601978 129.08615649 -92.58128747 122.55807395 C-92.56736403 118.79905754 -92.55806697 115.04019077 -92.56194496 111.281147 C-92.59111192 75.81753876 -92.59111192 75.81753876 -86.43945312 59.42602539 C-86.05817261 58.38551025 -86.05817261 58.38551025 -85.66918945 57.32397461 C-81.17992528 45.5666979 -74.5197885 35.48833784 -66.12695312 26.11352539 C-65.57652344 25.4805957 -65.02609375 24.84766602 -64.45898438 24.19555664 C-47.44142233 5.8333971 -24.13946759 -0.06586107 0 0 Z " fill="#393DCE" transform="translate(1212.126953125,565.886474609375)"/>
<path d="M0 0 C0.52464844 0.47695313 1.04929687 0.95390625 1.58984375 1.4453125 C1.58984375 2.1053125 1.58984375 2.7653125 1.58984375 3.4453125 C2.12996094 3.65929687 2.67007813 3.87328125 3.2265625 4.09375 C6.44066394 5.93189727 8.8372682 8.44331009 11.40234375 11.0703125 C11.89798828 11.56660156 12.39363281 12.06289063 12.90429688 12.57421875 C16.35573648 16.06563642 19.59530113 19.71049912 22.81079102 23.41894531 C25.68080338 26.68793154 28.66588328 29.8454898 31.65234375 33.0078125 C32.96626132 34.40483931 34.28006045 35.80197752 35.59375 37.19921875 C36.2552002 37.90191895 36.91665039 38.60461914 37.59814453 39.32861328 C53.47482449 56.2017213 53.47482449 56.2017213 59.125 62.80078125 C60.68870811 64.55630422 62.33818515 66.18576872 64.02734375 67.8203125 C66.58984375 70.4453125 66.58984375 70.4453125 66.58984375 72.4453125 C67.24984375 72.4453125 67.90984375 72.4453125 68.58984375 72.4453125 C70.05273438 73.9140625 70.05273438 73.9140625 71.74609375 75.9453125 C75.39950962 80.24166905 79.21210183 84.35169629 83.08984375 88.4453125 C87.44201737 93.03977207 91.69881923 97.68874457 95.84814453 102.46728516 C98.74819331 105.76083648 101.76338505 108.94378557 104.77734375 112.1328125 C106.10326667 113.54128825 107.42878256 114.95014728 108.75390625 116.359375 C109.7289209 117.39626465 109.7289209 117.39626465 110.72363281 118.45410156 C113.86612514 121.80708004 116.97807974 125.18791085 120.08935547 128.56982422 C122.78078697 131.49269894 125.48315067 134.40467407 128.19921875 137.3046875 C128.81531006 137.96267334 129.43140137 138.62065918 130.06616211 139.29858398 C131.24552366 140.55697734 132.42593613 141.81438707 133.60766602 143.07055664 C136.4709922 146.12614858 139.2786073 149.21619945 142.0234375 152.37890625 C145.68629438 156.59035354 149.49787829 160.64756922 153.33984375 164.6953125 C158.85699821 170.53138493 164.3235033 176.40507525 169.734375 182.33984375 C173.84161034 186.82625408 178.0227477 191.24450862 182.20141602 195.66430664 C185.21579818 198.86406416 188.17712548 202.09379196 191.05859375 205.4140625 C194.70828105 209.61518549 198.50923536 213.65945963 202.33984375 217.6953125 C208.82257586 224.55394164 215.22681729 231.47538038 221.58984375 238.4453125 C228.88257561 246.40314567 236.25254651 254.28542098 243.65795898 262.13842773 C249.19730176 268.01698155 254.68788001 273.93844385 260.15429688 279.88476562 C263.12249786 283.1114222 266.09868968 286.33071365 269.07324219 289.55151367 C271.67504293 292.36927585 274.27469416 295.18897818 276.87109375 298.01171875 C277.40992188 298.59695313 277.94875 299.1821875 278.50390625 299.78515625 C279.53064168 300.90040336 280.55672634 302.01625009 281.58203125 303.1328125 C283.65092444 305.3788761 285.72825694 307.57795847 287.93359375 309.69140625 C289.58984375 311.4453125 289.58984375 311.4453125 289.58984375 313.4453125 C290.24984375 313.4453125 290.90984375 313.4453125 291.58984375 313.4453125 C293.04394531 314.90527344 293.04394531 314.90527344 294.73046875 316.9296875 C298.46557693 321.32143311 302.37165105 325.51447763 306.33984375 329.6953125 C312.82240517 336.55415066 319.23380314 343.46917037 325.58984375 350.4453125 C332.12621159 357.60419157 338.70262876 364.722237 345.32299805 371.8034668 C350.61359395 377.46426704 355.87230187 383.15389263 361.12207031 388.85253906 C363.60950589 391.55181214 366.09983708 394.24841141 368.58984375 396.9453125 C369.58985727 398.02863336 370.58985727 399.11196668 371.58984375 400.1953125 C372.08484375 400.7315625 372.57984375 401.2678125 373.08984375 401.8203125 C389.58984375 419.6953125 389.58984375 419.6953125 391.08935547 421.31982422 C392.09092901 422.40483506 393.09255675 423.48979588 394.09423828 424.57470703 C396.57060647 427.25697007 399.04607439 429.94005184 401.51953125 432.625 C406.87696788 438.43831291 412.25336249 444.23304571 417.65234375 450.0078125 C422.76095249 455.47277106 427.834851 460.96730433 432.8828125 466.48828125 C437.2633242 471.27821646 441.67310765 476.04120993 446.078125 480.80859375 C448.0670354 482.96196186 450.05430958 485.11683402 452.04077148 487.27246094 C453.03331869 488.34765249 454.02763002 489.42121816 455.02368164 490.49316406 C457.63419562 493.30533232 460.21032541 496.14012272 462.7421875 499.0234375 C478.17127671 516.42874724 498.71215374 529.96853709 522.45458984 531.64794922 C551.7364627 532.9638306 574.08744838 524.65869433 596.0859375 505.2421875 C611.62567723 490.59943743 620.58120901 470.9411731 625.58984375 450.4453125 C625.91984375 450.4453125 626.24984375 450.4453125 626.58984375 450.4453125 C627.20348232 478.55703964 625.95247724 504.62019496 616.58984375 531.4453125 C616.36603027 532.09580566 616.1422168 532.74629883 615.91162109 533.41650391 C607.11647514 558.44884239 592.5209716 579.99959818 573.58984375 598.4453125 C573.07808594 599.0021875 572.56632812 599.5590625 572.0390625 600.1328125 C558.30938921 614.71507792 540.26182284 624.71938455 521.58984375 631.4453125 C520.55601562 631.82558594 519.5221875 632.20585938 518.45703125 632.59765625 C489.3167582 642.47255696 457.09220389 640.15348711 429.51806641 626.75390625 C412.19971848 617.88792248 397.94097402 605.22874545 385.23046875 590.6015625 C381.5628486 586.38128043 377.75043656 582.31324805 373.90234375 578.2578125 C369.06241918 573.13679528 364.2351243 568.00631793 359.46484375 562.8203125 C355.19295063 558.1766347 350.89881643 553.55461108 346.58984375 548.9453125 C341.7501899 543.76760916 336.93078504 538.57210973 332.12890625 533.359375 C328.29932918 529.20560093 324.44775406 525.07277113 320.58984375 520.9453125 C315.75023579 515.76756599 310.93078536 510.57211007 306.12890625 505.359375 C302.29932918 501.20560093 298.44775406 497.07277113 294.58984375 492.9453125 C289.75023579 487.76756599 284.93078536 482.57211007 280.12890625 477.359375 C276.29932918 473.20560093 272.44775406 469.07277113 268.58984375 464.9453125 C263.75023579 459.76756599 258.93078536 454.57211007 254.12890625 449.359375 C250.29932918 445.20560093 246.44775406 441.07277113 242.58984375 436.9453125 C237.75023579 431.76756599 232.93078536 426.57211007 228.12890625 421.359375 C224.29932918 417.20560093 220.44775406 413.07277113 216.58984375 408.9453125 C211.75094329 403.76832292 206.93197324 398.57383033 202.13110352 393.36157227 C198.28104326 389.18520331 194.40695637 385.03172578 190.52734375 380.8828125 C185.46083243 375.46384822 180.4349331 370.01079204 175.4296875 364.53515625 C171.59953104 360.35692735 167.72288018 356.2220738 163.8515625 352.08203125 C160.08282454 348.04997536 156.32896456 344.00483998 152.58984375 339.9453125 C148.27500566 335.2612287 143.93858344 330.59793573 139.58984375 325.9453125 C134.73139193 320.74698811 129.88992424 315.5337268 125.06958008 310.30004883 C122.45384456 307.46099222 119.8316141 304.62831248 117.19921875 301.8046875 C112.16909612 296.40842572 107.14849393 291.01948032 102.328125 285.43359375 C100.11727886 282.90478322 97.85387932 280.42658686 95.58984375 277.9453125 C92.1427456 274.16546279 88.73940894 270.35576381 85.38671875 266.4921875 C82.47065993 263.17041614 79.48640604 259.91021815 76.5078125 256.64453125 C74.58984375 254.4453125 74.58984375 254.4453125 72.58984375 251.4453125 C72.58894812 252.40629012 72.58894812 252.40629012 72.58803439 253.38668144 C72.552086 291.41581027 72.49536367 329.44485595 72.4119228 367.47391128 C72.40190618 372.04722308 72.39206191 376.62053525 72.38232422 381.19384766 C72.37941216 382.55945745 72.37941216 382.55945745 72.37644127 383.95265533 C72.34547913 398.66477228 72.32845681 413.37687365 72.31664953 428.08901702 C72.30420791 443.201934 72.27663888 458.31476969 72.23523068 473.42763531 C72.21018118 482.74179747 72.1967202 492.05582468 72.19841418 501.370021 C72.19844409 507.77015865 72.18368796 514.17015954 72.15767947 520.57024382 C72.14313248 524.25449412 72.13474428 527.93846406 72.14404106 531.62273788 C72.2162748 564.0187163 66.3149677 592.58081119 42.58984375 616.4453125 C20.31598878 637.34513096 -5.81767443 639.06168979 -34.81742978 638.85088825 C-38.89192576 638.82560248 -42.96643803 638.82351148 -47.04100037 638.81878662 C-54.72935185 638.80643563 -62.41747133 638.77372272 -70.10572141 638.73338866 C-78.87012393 638.68842317 -87.63453849 638.66662211 -96.39902794 638.64660692 C-114.40286809 638.60498146 -132.40649341 638.53478558 -150.41015625 638.4453125 C-150.42501971 597.06252559 -150.42205117 555.67974647 -150.41221086 514.29695898 C-150.41078282 508.26785122 -150.40949336 502.23874345 -150.4082937 496.20963564 C-150.39691474 439.54577117 -150.3625894 382.88198625 -150.28329731 326.21817266 C-150.27454866 319.96144802 -150.26599742 313.70472313 -150.25756836 307.44799805 C-150.25588936 306.20525911 -150.25421037 304.96252018 -150.25248049 303.68212248 C-150.22537236 283.22865904 -150.21667867 262.77522377 -150.21411482 242.32174423 C-150.21105584 221.0325041 -150.18918686 199.74334395 -150.14963168 178.45414001 C-150.12605333 165.45597161 -150.11674757 152.45796346 -150.12664314 139.45977668 C-150.13195738 130.63279925 -150.11893734 121.80596749 -150.09149335 112.97903159 C-150.07625305 107.90677685 -150.06892985 102.83484869 -150.08355904 97.76258469 C-150.0967859 93.11547381 -150.08667103 88.46899448 -150.05871852 83.82195423 C-150.05265301 82.15204455 -150.05481144 80.48207784 -150.06652699 78.81219824 C-150.15971199 64.39459925 -147.03522288 51.8520007 -140.72265625 38.8203125 C-140.38508301 38.11994873 -140.04750977 37.41958496 -139.69970703 36.69799805 C-127.41907922 12.0725774 -106.1953754 -5.97838656 -80.22265625 -14.7421875 C-52.12603421 -22.91212724 -23.63254697 -16.90847786 0 0 Z " fill="#3332BF" transform="translate(714.41015625,698.5546875)"/>
<path d="M0 0 C9.34880921 7.36716775 17.4444323 15.84587801 25.31982422 24.73828125 C25.99658203 25.50140625 26.67333984 26.26453125 27.37060547 27.05078125 C28.46780366 28.30183942 29.56058754 29.55678925 30.64794922 30.81640625 C32.67740495 33.14933199 34.74747122 35.4433937 36.81982422 37.73828125 C40.08127547 41.35232183 43.30341576 44.99617479 46.49951172 48.66796875 C49.33437791 51.89217279 52.22253841 55.0679846 55.10888672 58.24609375 C56.20330078 59.47972656 56.20330078 59.47972656 57.31982422 60.73828125 C58.1774684 61.52535084 59.03511259 62.31242043 59.91874599 63.12334061 C63.73381867 67.76869187 63.00585941 73.33879265 62.94801331 79.06951904 C62.95510769 80.32376309 62.96220208 81.57800713 62.96951145 82.87025857 C62.98843001 86.34527842 62.97620259 89.81959395 62.95878851 93.29459596 C62.94541344 97.04541871 62.96085288 100.79613849 62.97261047 104.54695129 C62.99099691 111.89562882 62.98246535 119.24404054 62.96452225 126.59270981 C62.95048811 132.57212275 62.94660522 138.55146359 62.94996452 144.53089142 C62.95044197 145.38246809 62.95091941 146.23404476 62.95141132 147.11142679 C62.95243769 148.84162744 62.95349305 150.57182807 62.95457708 152.30202869 C62.9631478 167.60846929 62.94646412 182.91478195 62.91674805 198.22119141 C62.88797055 213.04448843 62.88079778 227.8676007 62.89624023 242.69091797 C62.91304766 258.84648286 62.91698575 275.00195996 62.89952987 291.15752721 C62.89768563 292.88497876 62.8958509 294.61243032 62.8940258 296.3398819 C62.89311371 297.18968922 62.89220162 298.03949655 62.89126189 298.91505562 C62.88567997 304.87438278 62.88894227 310.83366684 62.89557076 316.79299164 C62.90334892 324.07500056 62.89639353 331.3568284 62.87139571 338.63880113 C62.85899653 342.34740084 62.85263524 346.05572014 62.86393738 349.76432991 C62.95287527 382.22249922 57.0959631 410.82246532 33.31982422 434.73828125 C11.04596925 455.63809971 -15.08769397 457.35465854 -44.08744931 457.143857 C-48.16194529 457.11857123 -52.23645756 457.11648023 -56.3110199 457.11175537 C-63.99937138 457.09940438 -71.68749087 457.06669147 -79.37574095 457.02635741 C-88.14014346 456.98139192 -96.90455802 456.95959086 -105.66904747 456.93957567 C-123.67288762 456.89795021 -141.67651294 456.82775433 -159.68017578 456.73828125 C-159.71368863 439.46745977 -159.73213065 422.19663091 -159.74267578 404.92578125 C-159.74311008 404.23668686 -159.74354439 403.54759248 -159.74399185 402.83761644 C-159.78535928 335.21050391 -159.48937489 267.5845171 -159.18919724 199.95824248 C-159.18014899 197.91974504 -159.17111075 195.88124756 -159.16207361 193.84275007 C-159.00668754 158.80790279 -158.84605105 123.77308044 -158.68017578 88.73828125 C-158.02017578 88.73828125 -157.36017578 88.73828125 -156.68017578 88.73828125 C-156.66599609 87.99707031 -156.65181641 87.25585938 -156.63720703 86.4921875 C-155.27585774 56.43212333 -138.75792579 27.87488316 -117.36767578 7.48828125 C-84.50190153 -21.31017812 -35.88702322 -26.94916245 0 0 Z " fill="#414EE4" transform="translate(723.68017578125,880.26171875)"/>
<path d="M0 0 C0 113.19 0 226.38 0 343 C-0.33 343 -0.66 343 -1 343 C-1.03963867 343.57741943 -1.07927734 344.15483887 -1.12011719 344.74975586 C-3.60472894 379.40048083 -13.82122848 408.40385222 -38 434 C-38.68578125 434.75023437 -39.3715625 435.50046875 -40.078125 436.2734375 C-59.20864878 456.46676816 -87.4545078 468.57071379 -115.10131836 469.40454102 C-143.41512593 469.73357295 -165.64477609 458.82639437 -185.8203125 439.265625 C-190.38079049 434.78974403 -194.77796804 430.22025052 -198.92578125 425.359375 C-202.44125303 421.36060861 -206.11098905 417.50385318 -209.76293945 413.62988281 C-210.89468749 412.42544204 -212.01740733 411.21243347 -213.12951148 409.98983151 C-214.94645874 408.00363349 -214.94645874 408.00363349 -216.84274328 406.33095735 C-220.7780993 402.51490466 -222.46476126 399.65938153 -222.86971474 394.14363194 C-222.9028783 391.82723752 -222.89765253 389.51009781 -222.86196899 387.19374084 C-222.87006667 385.91258107 -222.87816434 384.6314213 -222.88650739 383.3114385 C-222.9079047 379.77032871 -222.88585062 376.23063983 -222.85643649 372.68963706 C-222.83231532 368.86456673 -222.84870818 365.03963854 -222.85998535 361.21453857 C-222.87568537 353.72464558 -222.8541268 346.23530162 -222.81999679 338.74548794 C-222.78161604 330.01105737 -222.78041043 321.27673909 -222.78072636 312.54223865 C-222.78003964 296.94397668 -222.745924 281.34596686 -222.69287109 265.74780273 C-222.64151911 250.64034573 -222.6131079 235.53308265 -222.61083984 220.42553711 C-222.61069699 219.49634714 -222.61055413 218.56715718 -222.61040695 217.60980994 C-222.61026833 216.6821718 -222.61012972 215.75453366 -222.6099869 214.79878527 C-222.60969649 212.93066887 -222.609394 211.06255247 -222.60907936 209.19443607 C-222.60892432 208.27296136 -222.60876928 207.35148665 -222.60860953 206.40208847 C-222.60515957 191.97292921 -222.57959673 177.54379881 -222.55222327 163.11466824 C-222.5426484 157.90049149 -222.53649839 152.68632377 -222.5329227 147.4721396 C-222.52722899 139.19133454 -222.511942 130.91067178 -222.47709651 122.6299336 C-222.46137793 118.85061402 -222.45007813 115.07143725 -222.45182419 111.29208183 C-222.46014779 75.69332575 -222.46014779 75.69332575 -216.3125 59.3125 C-216.05831299 58.61882324 -215.80412598 57.92514648 -215.54223633 57.21044922 C-211.05297216 45.45317251 -204.39283537 35.37481245 -196 26 C-195.44957031 25.36707031 -194.89914062 24.73414063 -194.33203125 24.08203125 C-149.90187487 -23.858656 -37.00673902 0 0 0 Z " fill="#414EE5" transform="translate(1342,566)"/>
<path d="M0 0 C1.15360016 -0.00939606 1.15360016 -0.00939606 2.33050537 -0.01898193 C38.672536 -0.20623697 74.47904484 12.23246209 103.1875 34.4375 C104.10402344 35.13101562 105.02054688 35.82453125 105.96484375 36.5390625 C118.62174925 46.46386064 130.06568529 58.17944697 139.1875 71.4375 C139.59274902 72.02547363 139.99799805 72.61344727 140.41552734 73.21923828 C166.7350771 112.03672628 175.49661795 158.45887541 167.1875 204.4375 C158.63118063 246.34207413 134.38494598 283.06403956 100.1875 308.4375 C99.33140137 309.07606934 99.33140137 309.07606934 98.45800781 309.72753906 C63.61337156 335.32563772 17.76823528 345.3208608 -24.8125 339.25 C-69.3979485 332.21934829 -110.52181292 308.86819858 -137.47875977 272.31640625 C-154.80726656 248.06595219 -166.43781394 220.18182593 -169.8125 190.4375 C-169.92335938 189.48101563 -170.03421875 188.52453125 -170.1484375 187.5390625 C-174.42794227 144.39702795 -162.26200993 100.77885557 -135.8125 66.4375 C-135.10609375 65.50679687 -134.3996875 64.57609375 -133.671875 63.6171875 C-107.28622384 30.09763806 -67.88260894 7.35671323 -25.65234375 1.12890625 C-17.12323236 0.11473856 -8.57914503 0.03260226 0 0 Z " fill="#F01B44" transform="translate(1607.8125,1437.5625)"/>
</svg>
